<?xml version="1.0" standalone="no"?><!DOCTYPE svg PUBLIC "-//W3C//DTD SVG 1.1//EN" "http://www.w3.org/Graphics/SVG/1.1/DTD/svg11.dtd"><svg t="1714663559074" class="icon" viewBox="0 0 1024 1024" version="1.1" xmlns="http://www.w3.org/2000/svg" p-id="17630" xmlns:xlink="http://www.w3.org/1999/xlink" width="200" height="200"><path d="M928 232L713.6 8l-8-8H164.8C121.6 0 88 33.6 88 76.8v870.4c0 41.6 33.6 76.8 76.8 76.8h694.4c41.6 0 76.8-33.6 76.8-76.8V240l-8-8z m-78.4-8h-105.6c-14.4 0-25.6-11.2-25.6-25.6V88l131.2 136z m8 750.4H164.8c-14.4 0-25.6-11.2-25.6-25.6V76.8c0-14.4 11.2-25.6 25.6-25.6h505.6v148.8c0 41.6 33.6 76.8 76.8 76.8h139.2v672c-3.2 12.8-14.4 25.6-28.8 25.6z" fill="#009A61" p-id="17631"></path><path d="M233.6 654.4l43.2-6.4c1.6 28.8 6.4 48 16 57.6 9.6 9.6 22.4 16 38.4 16 12.8 0 22.4-3.2 32-8 9.6-4.8 14.4-12.8 17.6-22.4 3.2-9.6 4.8-25.6 4.8-46.4V390.4h48V640c0 30.4-3.2 54.4-11.2 72-8 17.6-19.2 30.4-35.2 38.4-16 9.6-35.2 12.8-56 12.8-32 0-57.6-9.6-73.6-27.2-16-17.6-24-44.8-24-81.6z m264-14.4l46.4-4.8c1.6 17.6 8 33.6 14.4 44.8 8 11.2 20.8 20.8 36.8 28.8 16 8 35.2 11.2 56 11.2 19.2 0 35.2-3.2 49.6-8 14.4-4.8 24-12.8 32-22.4 6.4-9.6 9.6-20.8 9.6-32s-3.2-20.8-9.6-30.4c-6.4-8-17.6-16-33.6-22.4-9.6-3.2-32-9.6-65.6-17.6-33.6-8-57.6-16-70.4-22.4-17.6-9.6-30.4-20.8-38.4-33.6s-12.8-28.8-12.8-46.4c0-19.2 4.8-35.2 16-51.2s25.6-28.8 46.4-36.8c20.8-8 43.2-12.8 67.2-12.8 27.2 0 51.2 4.8 72 12.8 20.8 8 36.8 22.4 48 38.4 11.2 17.6 17.6 36.8 17.6 57.6l-48 3.2c-3.2-22.4-11.2-40-25.6-52.8-14.4-11.2-35.2-17.6-64-17.6s-51.2 4.8-64 16c-12.8 11.2-20.8 24-20.8 38.4 0 12.8 4.8 24 14.4 32 9.6 8 33.6 17.6 73.6 25.6 40 9.6 67.2 16 81.6 24 20.8 9.6 36.8 22.4 48 36.8 9.6 14.4 16 32 16 52.8 0 19.2-4.8 38.4-16 54.4-11.2 17.6-27.2 30.4-48 40-20.8 9.6-44.8 14.4-70.4 14.4-33.6 0-60.8-4.8-83.2-14.4-22.4-9.6-40-24-52.8-43.2-14.4-16-20.8-38.4-22.4-62.4z" fill="#009A61" p-id="17632"></path></svg>